# xmcd
#
# Track frame offsets:
#	150
#	9450
#	26161
#	35999
#	46418
#	58266
#	78450
#	95961
#	106386
#	123346
#	132531
#	146576
#	164809
#	175257
#	181854
#	198771
#	218664
#	229859
#	244096
#	259942
#	273289
#
# Disc length: 3770 seconds
#
# Revision: 1
# Processed by: cddbd v1.5.2PL0 Copyright (c) Steve Scherf et al.
# Submitted via: audiograbber 1.83.01
#
DISCID=3d0eb815
DTITLE=Steve Goodie - I Love My Job
DYEAR=2014
DGENRE=Comedy
TTITLE0=I Love My Job
TTITLE1=That Brat Bieber
TTITLE2=The Big Bang Theory Song
TTITLE3=Why Did The Chicken Cross The Road
TTITLE4=Shutdown
TTITLE5=Stieve The Pirate
TTITLE6=Forrest Does Jenny
TTITLE7=Dot Matrix Printer
TTITLE8=Headin' Down To Nashville
TTITLE9=Miley The Sequel
TTITLE10=What's In My Hoydog
TTITLE11=I Just Threw Up
TTITLE12=Lookin' Out My Back Door
TTITLE13=Nina
TTITLE14=Dumbledoor
TTITLE15=Black Water
TTITLE16=Frank's Garage
TTITLE17=The Pedley
TTITLE18=War On Christmas Is Over
TTITLE19=Love Me (On) Tinder
TTITLE20=My Dog Never Multi-Tasks
EXTD=
EXTT0=
EXTT1=
EXTT2=
EXTT3=
EXTT4=
EXTT5=
EXTT6=
EXTT7=
EXTT8=
EXTT9=
EXTT10=
EXTT11=
EXTT12=
EXTT13=
EXTT14=
EXTT15=
EXTT16=
EXTT17=
EXTT18=
EXTT19=
EXTT20=
PLAYORDER=
